<svg width="115" height="40" viewBox="0 0 115 40" fill="none" xmlns="http://www.w3.org/2000/svg">
<rect width="115" height="40" rx="20" fill="#00BBFF"/>
<path d="M20.46 21.208C21.3846 21.2314 21.9284 21.3249 22.3018 21.6982C22.7996 22.1962 22.7998 22.9979 22.7998 24.6006V26.6006L22.792 27.6602C22.7686 28.5847 22.6751 29.1286 22.3018 29.502C21.9284 29.8753 21.3846 29.9688 20.46 29.9922L19.4004 30H17.4004L16.3408 29.9922C15.4927 29.9708 14.9645 29.8908 14.5947 29.5898L14.498 29.502C14.1248 29.1286 14.0312 28.5846 14.0078 27.6602L14 26.6006V24.6006C14 22.9979 14.0002 22.1962 14.498 21.6982C14.8715 21.3247 15.4157 21.2313 16.3408 21.208L17.4004 21.2002H19.4004L20.46 21.208ZM31.6592 21.208C32.5838 21.2314 33.1276 21.3249 33.501 21.6982C33.9989 22.1962 33.999 22.9978 33.999 24.6006V26.6006L33.9912 27.6602C33.9679 28.5848 33.8744 29.1286 33.501 29.502C33.1276 29.8753 32.5839 29.9688 31.6592 29.9922L30.5996 30H28.5996L27.54 29.9922C26.6918 29.9708 26.1637 29.8909 25.7939 29.5898L25.6973 29.502C25.324 29.1286 25.2304 28.5848 25.207 27.6602L25.1992 26.6006V24.6006C25.1992 22.9978 25.1993 22.1962 25.6973 21.6982C26.0708 21.3247 26.6149 21.2313 27.54 21.208L28.5996 21.2002H30.5996L31.6592 21.208ZM28.5996 23C27.8036 23 27.3511 23.0041 27.0381 23.0391C27.0031 23.352 26.999 23.8046 26.999 24.6006V26.6006C26.999 27.3954 27.0033 27.8473 27.0381 28.1602C27.3511 28.1951 27.8035 28.2002 28.5996 28.2002H30.5996C31.3945 28.2002 31.8463 28.195 32.1592 28.1602C32.194 27.8473 32.1992 27.3955 32.1992 26.6006V24.6006C32.1992 23.8044 32.1942 23.352 32.1592 23.0391C31.8463 23.0042 31.3944 23 30.5996 23H28.5996ZM17.4004 23C16.6044 23 16.1518 23.0041 15.8389 23.0391C15.8039 23.352 15.7998 23.8047 15.7998 24.6006V26.6006C15.7998 27.3953 15.804 27.8473 15.8389 28.1602C16.1518 28.1951 16.6043 28.2002 17.4004 28.2002H19.4004C20.1953 28.2002 20.6471 28.195 20.96 28.1602C20.9948 27.8473 21 27.3954 21 26.6006V24.6006C21 23.8046 20.9949 23.352 20.96 23.0391C20.6471 23.0042 20.1952 23 19.4004 23H17.4004ZM20.46 10.0078C21.3846 10.0312 21.9284 10.1247 22.3018 10.498C22.7997 10.996 22.7998 11.7976 22.7998 13.4004V15.4004L22.792 16.46C22.7686 17.3846 22.6751 17.9284 22.3018 18.3018C21.9284 18.6751 21.3846 18.7686 20.46 18.792L19.4004 18.7998H17.4004L16.3408 18.792C15.4926 18.7706 14.9645 18.6907 14.5947 18.3896L14.498 18.3018C14.1247 17.9284 14.0312 17.3846 14.0078 16.46L14 15.4004V13.4004C14 11.7976 14.0001 10.996 14.498 10.498C14.8715 10.1246 15.4157 10.0311 16.3408 10.0078L17.4004 10H19.4004L20.46 10.0078ZM31.6592 10.0078C32.5838 10.0312 33.1276 10.1247 33.501 10.498C33.9989 10.996 33.999 11.7976 33.999 13.4004V15.4004L33.9912 16.46C33.9679 17.3846 33.8744 17.9284 33.501 18.3018C33.1276 18.6751 32.5839 18.7686 31.6592 18.792L30.5996 18.7998H28.5996L27.54 18.792C26.6918 18.7706 26.1637 18.6907 25.7939 18.3896L25.6973 18.3018C25.324 17.9284 25.2304 17.3846 25.207 16.46L25.1992 15.4004V13.4004C25.1992 11.7976 25.1993 10.996 25.6973 10.498C26.0708 10.1246 26.6149 10.0311 27.54 10.0078L28.5996 10H30.5996L31.6592 10.0078ZM17.4004 11.7998C16.6044 11.7998 16.1518 11.8039 15.8389 11.8389C15.8039 12.1518 15.7998 12.6044 15.7998 13.4004V15.4004C15.7998 16.1952 15.804 16.6471 15.8389 16.96C16.1518 16.9949 16.6042 17 17.4004 17H19.4004C20.1953 17 20.6471 16.9948 20.96 16.96C20.9948 16.6471 21 16.1953 21 15.4004V13.4004C21 12.6042 20.9949 12.1518 20.96 11.8389C20.6471 11.804 20.1952 11.7998 19.4004 11.7998H17.4004ZM28.5996 11.7998C27.8036 11.7998 27.3511 11.8039 27.0381 11.8389C27.0031 12.1518 26.999 12.6044 26.999 13.4004V15.4004C26.999 16.1952 27.0033 16.6471 27.0381 16.96C27.3511 16.9949 27.8035 17 28.5996 17H30.5996C31.3945 17 31.8463 16.9948 32.1592 16.96C32.194 16.6471 32.1992 16.1953 32.1992 15.4004V13.4004C32.1992 12.6042 32.1942 12.1518 32.1592 11.8389C31.8463 11.804 31.3944 11.7998 30.5996 11.7998H28.5996Z" fill="white"/>
<path d="M52.7727 17.5H51.3636C51.2803 17.0947 51.1345 16.7386 50.9261 16.4318C50.7216 16.125 50.4716 15.8674 50.1761 15.6591C49.8845 15.447 49.5606 15.2879 49.2045 15.1818C48.8485 15.0758 48.4773 15.0227 48.0909 15.0227C47.3864 15.0227 46.7481 15.2008 46.1761 15.5568C45.608 15.9129 45.1553 16.4375 44.8182 17.1307C44.4848 17.8239 44.3182 18.6742 44.3182 19.6818C44.3182 20.6894 44.4848 21.5398 44.8182 22.233C45.1553 22.9261 45.608 23.4508 46.1761 23.8068C46.7481 24.1629 47.3864 24.3409 48.0909 24.3409C48.4773 24.3409 48.8485 24.2879 49.2045 24.1818C49.5606 24.0758 49.8845 23.9186 50.1761 23.7102C50.4716 23.4981 50.7216 23.2386 50.9261 22.9318C51.1345 22.6212 51.2803 22.2652 51.3636 21.8636H52.7727C52.6667 22.4583 52.4735 22.9905 52.1932 23.4602C51.9129 23.9299 51.5644 24.3295 51.1477 24.6591C50.7311 24.9848 50.2633 25.233 49.7443 25.4034C49.2292 25.5739 48.678 25.6591 48.0909 25.6591C47.0985 25.6591 46.2159 25.4167 45.4432 24.9318C44.6705 24.447 44.0625 23.7576 43.6193 22.8636C43.1761 21.9697 42.9545 20.9091 42.9545 19.6818C42.9545 18.4545 43.1761 17.3939 43.6193 16.5C44.0625 15.6061 44.6705 14.9167 45.4432 14.4318C46.2159 13.947 47.0985 13.7045 48.0909 13.7045C48.678 13.7045 49.2292 13.7898 49.7443 13.9602C50.2633 14.1307 50.7311 14.3807 51.1477 14.7102C51.5644 15.036 51.9129 15.4337 52.1932 15.9034C52.4735 16.3693 52.6667 16.9015 52.7727 17.5ZM57.4361 25.7045C56.883 25.7045 56.3812 25.6004 55.9304 25.392C55.4796 25.1799 55.1217 24.875 54.8565 24.4773C54.5914 24.0758 54.4588 23.5909 54.4588 23.0227C54.4588 22.5227 54.5573 22.1174 54.7543 21.8068C54.9512 21.4924 55.2145 21.2462 55.544 21.0682C55.8736 20.8902 56.2372 20.7576 56.6349 20.6705C57.0365 20.5795 57.4399 20.5076 57.8452 20.4545C58.3755 20.3864 58.8054 20.3352 59.1349 20.3011C59.4683 20.2633 59.7107 20.2008 59.8622 20.1136C60.0175 20.0265 60.0952 19.875 60.0952 19.6591V19.6136C60.0952 19.053 59.9418 18.6174 59.6349 18.3068C59.3319 17.9962 58.8717 17.8409 58.2543 17.8409C57.6141 17.8409 57.1122 17.9811 56.7486 18.2614C56.3849 18.5417 56.1293 18.8409 55.9815 19.1591L54.7088 18.7045C54.9361 18.1742 55.2391 17.7614 55.6179 17.4659C56.0005 17.1667 56.4171 16.9583 56.8679 16.8409C57.3224 16.7197 57.7694 16.6591 58.2088 16.6591C58.4891 16.6591 58.8111 16.6932 59.1747 16.7614C59.5421 16.8258 59.8963 16.9602 60.2372 17.1648C60.5819 17.3693 60.8679 17.678 61.0952 18.0909C61.3224 18.5038 61.4361 19.0568 61.4361 19.75V25.5H60.0952V24.3182H60.027C59.9361 24.5076 59.7846 24.7102 59.5724 24.9261C59.3603 25.142 59.0781 25.3258 58.7259 25.4773C58.3736 25.6288 57.9437 25.7045 57.4361 25.7045ZM57.6406 24.5C58.1709 24.5 58.6179 24.3958 58.9815 24.1875C59.349 23.9792 59.6255 23.7102 59.8111 23.3807C60.0005 23.0511 60.0952 22.7045 60.0952 22.3409V21.1136C60.0384 21.1818 59.9134 21.2443 59.7202 21.3011C59.5308 21.3542 59.3111 21.4015 59.0611 21.4432C58.8149 21.4811 58.5743 21.5152 58.3395 21.5455C58.1084 21.572 57.9209 21.5947 57.777 21.6136C57.4285 21.6591 57.1027 21.733 56.7997 21.8352C56.5005 21.9337 56.258 22.0833 56.0724 22.2841C55.8906 22.4811 55.7997 22.75 55.7997 23.0909C55.7997 23.5568 55.9721 23.9091 56.3168 24.1477C56.6652 24.3826 57.1065 24.5 57.6406 24.5ZM67.679 16.7727V17.9091H63.1562V16.7727H67.679ZM64.4744 14.6818H65.8153V23C65.8153 23.3788 65.8703 23.6629 65.9801 23.8523C66.0938 24.0379 66.2377 24.1629 66.4119 24.2273C66.59 24.2879 66.7775 24.3182 66.9744 24.3182C67.1222 24.3182 67.2434 24.3106 67.3381 24.2955C67.4328 24.2765 67.5085 24.2614 67.5653 24.25L67.8381 25.4545C67.7472 25.4886 67.6203 25.5227 67.4574 25.5568C67.2945 25.5947 67.0881 25.6136 66.8381 25.6136C66.4593 25.6136 66.0881 25.5322 65.7244 25.3693C65.3646 25.2064 65.0653 24.9583 64.8267 24.625C64.5919 24.2917 64.4744 23.8712 64.4744 23.3636V14.6818ZM72.2642 25.7045C71.7112 25.7045 71.2093 25.6004 70.7585 25.392C70.3078 25.1799 69.9498 24.875 69.6847 24.4773C69.4195 24.0758 69.2869 23.5909 69.2869 23.0227C69.2869 22.5227 69.3854 22.1174 69.5824 21.8068C69.7794 21.4924 70.0426 21.2462 70.3722 21.0682C70.7017 20.8902 71.0653 20.7576 71.4631 20.6705C71.8646 20.5795 72.268 20.5076 72.6733 20.4545C73.2036 20.3864 73.6335 20.3352 73.9631 20.3011C74.2964 20.2633 74.5388 20.2008 74.6903 20.1136C74.8456 20.0265 74.9233 19.875 74.9233 19.6591V19.6136C74.9233 19.053 74.7699 18.6174 74.4631 18.3068C74.16 17.9962 73.6998 17.8409 73.0824 17.8409C72.4422 17.8409 71.9403 17.9811 71.5767 18.2614C71.2131 18.5417 70.9574 18.8409 70.8097 19.1591L69.5369 18.7045C69.7642 18.1742 70.0672 17.7614 70.446 17.4659C70.8286 17.1667 71.2453 16.9583 71.696 16.8409C72.1506 16.7197 72.5975 16.6591 73.0369 16.6591C73.3172 16.6591 73.6392 16.6932 74.0028 16.7614C74.3703 16.8258 74.7244 16.9602 75.0653 17.1648C75.41 17.3693 75.696 17.678 75.9233 18.0909C76.1506 18.5038 76.2642 19.0568 76.2642 19.75V25.5H74.9233V24.3182H74.8551C74.7642 24.5076 74.6127 24.7102 74.4006 24.9261C74.1884 25.142 73.9063 25.3258 73.554 25.4773C73.2017 25.6288 72.7718 25.7045 72.2642 25.7045ZM72.4688 24.5C72.9991 24.5 73.446 24.3958 73.8097 24.1875C74.1771 23.9792 74.4536 23.7102 74.6392 23.3807C74.8286 23.0511 74.9233 22.7045 74.9233 22.3409V21.1136C74.8665 21.1818 74.7415 21.2443 74.5483 21.3011C74.3589 21.3542 74.1392 21.4015 73.8892 21.4432C73.643 21.4811 73.4025 21.5152 73.1676 21.5455C72.9366 21.572 72.7491 21.5947 72.6051 21.6136C72.2566 21.6591 71.9309 21.733 71.6278 21.8352C71.3286 21.9337 71.0862 22.0833 70.9006 22.2841C70.7188 22.4811 70.6278 22.75 70.6278 23.0909C70.6278 23.5568 70.8002 23.9091 71.1449 24.1477C71.4934 24.3826 71.9347 24.5 72.4688 24.5ZM80.0526 13.8636V25.5H78.7116V13.8636H80.0526ZM86.054 25.6818C85.2661 25.6818 84.5748 25.4943 83.9801 25.1193C83.3892 24.7443 82.9271 24.2197 82.5938 23.5455C82.2642 22.8712 82.0994 22.0833 82.0994 21.1818C82.0994 20.2727 82.2642 19.4792 82.5938 18.8011C82.9271 18.1231 83.3892 17.5966 83.9801 17.2216C84.5748 16.8466 85.2661 16.6591 86.054 16.6591C86.8419 16.6591 87.5313 16.8466 88.1222 17.2216C88.7169 17.5966 89.179 18.1231 89.5085 18.8011C89.8419 19.4792 90.0085 20.2727 90.0085 21.1818C90.0085 22.0833 89.8419 22.8712 89.5085 23.5455C89.179 24.2197 88.7169 24.7443 88.1222 25.1193C87.5313 25.4943 86.8419 25.6818 86.054 25.6818ZM86.054 24.4773C86.6525 24.4773 87.1449 24.3239 87.5312 24.017C87.9176 23.7102 88.2036 23.3068 88.3892 22.8068C88.5748 22.3068 88.6676 21.7652 88.6676 21.1818C88.6676 20.5985 88.5748 20.0549 88.3892 19.5511C88.2036 19.0473 87.9176 18.6402 87.5312 18.3295C87.1449 18.0189 86.6525 17.8636 86.054 17.8636C85.4555 17.8636 84.9631 18.0189 84.5767 18.3295C84.1903 18.6402 83.9044 19.0473 83.7188 19.5511C83.5331 20.0549 83.4403 20.5985 83.4403 21.1818C83.4403 21.7652 83.5331 22.3068 83.7188 22.8068C83.9044 23.3068 84.1903 23.7102 84.5767 24.017C84.9631 24.3239 85.4555 24.4773 86.054 24.4773ZM95.5781 28.9545C94.9304 28.9545 94.3736 28.8712 93.9077 28.7045C93.4418 28.5417 93.0535 28.3258 92.7429 28.0568C92.4361 27.7917 92.1918 27.5076 92.0099 27.2045L93.0781 26.4545C93.1993 26.6136 93.3527 26.7955 93.5384 27C93.724 27.2083 93.9777 27.3883 94.2997 27.5398C94.6255 27.6951 95.0516 27.7727 95.5781 27.7727C96.2827 27.7727 96.8641 27.6023 97.3224 27.2614C97.7808 26.9205 98.0099 26.3864 98.0099 25.6591V23.8864H97.8963C97.7978 24.0455 97.6577 24.2424 97.4759 24.4773C97.2978 24.7083 97.0402 24.9148 96.7031 25.0966C96.3698 25.2746 95.919 25.3636 95.3509 25.3636C94.6463 25.3636 94.0137 25.197 93.4531 24.8636C92.8963 24.5303 92.455 24.0455 92.1293 23.4091C91.8073 22.7727 91.6463 22 91.6463 21.0909C91.6463 20.197 91.8035 19.4186 92.1179 18.7557C92.4323 18.089 92.8698 17.5739 93.4304 17.2102C93.991 16.8428 94.6387 16.6591 95.3736 16.6591C95.9418 16.6591 96.3925 16.7538 96.7259 16.9432C97.063 17.1288 97.3205 17.3409 97.4986 17.5795C97.6804 17.8144 97.8205 18.0076 97.919 18.1591H98.0554V16.7727H99.3509V25.75C99.3509 26.5 99.1804 27.1098 98.8395 27.5795C98.5024 28.053 98.0478 28.3996 97.4759 28.6193C96.9077 28.8428 96.2751 28.9545 95.5781 28.9545ZM95.5327 24.1591C96.0705 24.1591 96.5251 24.036 96.8963 23.7898C97.2675 23.5436 97.5497 23.1894 97.7429 22.7273C97.9361 22.2652 98.0327 21.7121 98.0327 21.0682C98.0327 20.4394 97.938 19.8845 97.7486 19.4034C97.5592 18.9223 97.2789 18.5455 96.9077 18.2727C96.5365 18 96.0781 17.8636 95.5327 17.8636C94.9645 17.8636 94.491 18.0076 94.1122 18.2955C93.7372 18.5833 93.455 18.9697 93.2656 19.4545C93.08 19.9394 92.9872 20.4773 92.9872 21.0682C92.9872 21.6742 93.0819 22.2102 93.2713 22.6761C93.4645 23.1383 93.7486 23.5019 94.1236 23.767C94.5024 24.0284 94.9721 24.1591 95.5327 24.1591Z" fill="white"/>
</svg>
