<svg width="44" height="40" viewBox="0 0 44 40" fill="none" xmlns="http://www.w3.org/2000/svg">
<rect width="44" height="40" fill="#00BBFF"/>
<path d="M29.8142 28.8316C30.4284 28.2179 30.4286 27.2225 29.8148 26.6085L26.936 23.7293C26.2551 23.0483 26.1792 21.988 26.5451 21.0972C26.9468 20.1193 27.156 19.0675 27.155 17.9998C27.155 13.4943 23.4906 9.82812 18.9842 9.82812C14.4787 9.82812 10.8125 13.4943 10.8125 17.9998C10.8125 22.5063 14.4787 26.1715 18.9842 26.1715C20.0518 26.1728 21.1035 25.9638 22.0811 25.5622C22.9722 25.1961 24.0328 25.2719 24.714 25.9531L27.592 28.8311C28.2056 29.4447 29.2003 29.4449 29.8142 28.8316ZM18.9842 23.6564C17.4842 23.6549 16.046 23.0584 14.9854 21.9978C13.9247 20.9371 13.3282 19.4989 13.3267 17.9989C13.3284 16.499 13.925 15.061 14.9856 14.0004C16.0463 12.9397 17.4843 12.3431 18.9842 12.3414C20.4841 12.3431 21.9222 12.9397 22.9828 14.0004C24.0434 15.061 24.64 16.499 24.6417 17.9989C24.64 19.4989 24.0434 20.9369 22.9828 21.9975C21.9222 23.0581 20.4841 23.6547 18.9842 23.6564Z" fill="white"/>
</svg>
