<svg width="175" height="24" viewBox="0 0 175 24" fill="none" xmlns="http://www.w3.org/2000/svg">
<path d="M174.044 5.77246H166.533V24H160.694V5.77246H153.189V4.77454e-05H160.694L166.533 0H174.044V5.77246Z" fill="#00BBFF"/>
<path d="M150.435 23.9999H144.663V10.679C144.663 9.92411 144.53 9.25066 144.263 8.65862C144.012 8.05178 143.664 7.53374 143.22 7.10451C142.776 6.67528 142.25 6.34966 141.644 6.12764C141.052 5.89082 140.408 5.77241 139.712 5.77241L129.61 23.9999H123.838V2.86401C123.838 2.46438 123.912 2.09435 124.06 1.75393C124.208 1.3987 124.415 1.09528 124.682 0.84366C124.948 0.577241 125.259 0.370027 125.614 0.222016C125.969 0.0740053 126.347 0 126.746 0H139.756C140.482 0 141.244 0.0814058 142.043 0.244218C142.857 0.407029 143.657 0.673448 144.441 1.04347C145.24 1.3987 145.995 1.85753 146.706 2.41997C147.431 2.96761 148.067 3.64106 148.615 4.44032C149.177 5.22477 149.621 6.13504 149.947 7.17111C150.273 8.20719 150.435 9.37647 150.435 10.679V23.9999Z" fill="#00BBFF"/>
<path d="M112.005 0C112.804 0 113.663 0.140655 114.581 0.421875C115.513 0.703094 116.372 1.16154 117.156 1.79785C117.956 2.4195 118.621 3.24142 119.154 4.2627C119.687 5.26916 119.953 6.49776 119.953 7.94824C119.953 8.74748 119.812 9.61346 119.531 10.5459C119.25 11.4634 118.792 12.3219 118.155 13.1211C117.534 13.9055 116.712 14.5638 115.69 15.0967C114.684 15.6295 113.455 15.8965 112.005 15.8965H99.1279V16.0518C99.1279 16.8213 99.3654 17.4204 99.8389 17.8496C100.327 18.2788 100.926 18.4941 101.637 18.4941H119.953V24H101.593C100.794 24 99.9276 23.8593 98.9951 23.5781C98.0775 23.2969 97.2192 22.8453 96.4199 22.2236C95.6355 21.5872 94.9762 20.7662 94.4434 19.7598C93.9105 18.7385 93.6445 17.5023 93.6445 16.0518V7.94824C93.6445 7.14905 93.7852 6.29063 94.0664 5.37305C94.3476 4.44064 94.7993 3.58226 95.4209 2.79785C96.0573 1.9986 96.8783 1.33166 97.8848 0.798828C98.906 0.26599 100.142 0 101.593 0H112.005Z" fill="#00BBFF"/>
<path d="M90.7378 0L80.3696 11.3228L92.0477 23.9999H84.0995H76.3733H68.736H60.7656L72.4215 11.2784L62.0977 0H70.0015L76.3733 6.9491L82.7896 0H90.7378Z" fill="#00BBFF"/>
<path d="M57.9002 21.0915C57.9002 21.5059 57.8262 21.8908 57.6782 22.246C57.5302 22.6012 57.323 22.912 57.0566 23.1785C56.805 23.4301 56.5015 23.6299 56.1463 23.7779C55.8059 23.9259 55.4359 23.9999 55.0362 23.9999H41.9817C41.2712 23.9999 40.509 23.9185 39.6949 23.7557C38.8957 23.5929 38.1038 23.3339 37.3194 22.9786C36.5349 22.6086 35.7727 22.1498 35.0326 21.6021C34.3073 21.0397 33.6709 20.3663 33.1233 19.5818C32.5756 18.7825 32.1316 17.8649 31.7912 16.8288C31.4655 15.7927 31.3027 14.6234 31.3027 13.321V0H37.0751V13.321C37.0751 14.0758 37.201 14.7567 37.4526 15.3635C37.719 15.9555 38.0742 16.4662 38.5183 16.8954C38.9623 17.3246 39.4803 17.6577 40.0724 17.8945C40.6792 18.1165 41.3305 18.2275 42.0261 18.2275L52.1278 0H57.9002V21.0915Z" fill="#00BBFF"/>
<path d="M26.5975 23.9999H20.8251V10.679C20.8251 9.92411 20.6919 9.25066 20.4255 8.65862C20.1738 8.05178 19.826 7.53374 19.382 7.10451C18.938 6.67528 18.4125 6.34966 17.8057 6.12764C17.2136 5.89082 16.5698 5.77241 15.8741 5.77241L5.77241 23.9999H0V2.86401C0 2.46438 0.0740053 2.09435 0.222016 1.75393C0.370027 1.3987 0.577241 1.09528 0.843661 0.84366C1.11008 0.577241 1.4209 0.370027 1.77613 0.222016C2.13135 0.0740053 2.50878 0 2.90841 0H15.9185C16.6438 0 17.406 0.0814058 18.2053 0.244218C19.0194 0.407029 19.8186 0.673448 20.6031 1.04347C21.4023 1.3987 22.1572 1.85753 22.8676 2.41997C23.5929 2.96761 24.2293 3.64106 24.777 4.44032C25.3394 5.22477 25.7835 6.13504 26.1091 7.17111C26.4347 8.20719 26.5975 9.37647 26.5975 10.679V23.9999Z" fill="#00BBFF"/>
</svg>
