<svg width="200" height="40" viewBox="0 0 200 40" fill="none" xmlns="http://www.w3.org/2000/svg">
<path d="M66.2665 29.5225L53.8052 16.8326V29.5225H48.8179V11.0522H54.2353L66.7101 23.7959V11.0522H71.6705V29.5225H66.2665ZM99.2549 23.2985C99.2549 24.2216 99.0264 25.0909 98.5693 25.9064C98.1123 26.7219 97.4267 27.4344 96.5126 28.0438C95.5985 28.6532 94.4559 29.1371 93.0847 29.4956C91.7225 29.8451 90.1273 30.0198 88.2991 30.0198C86.4709 30.0198 84.8668 29.8451 83.4866 29.4956C82.1155 29.1371 80.9729 28.6532 80.0588 28.0438C79.1446 27.4344 78.4591 26.7219 78.002 25.9064C77.545 25.0909 77.3164 24.2216 77.3164 23.2985V11.0522H82.2902V21.5106C82.2902 22.129 82.3664 22.716 82.5188 23.2716C82.6801 23.8183 82.9758 24.2977 83.406 24.71C83.8451 25.1222 84.4545 25.4493 85.2342 25.6913C86.0228 25.9333 87.0445 26.0542 88.2991 26.0542C89.5448 26.0542 90.5575 25.9333 91.3372 25.6913C92.1169 25.4493 92.7218 25.1222 93.1519 24.71C93.5911 24.2977 93.8868 23.8183 94.0392 23.2716C94.1915 22.716 94.2677 22.129 94.2677 21.5106V11.0522H99.2549V23.2985ZM117.12 20.0454L125.885 29.5225H119.903L114.123 23.2985L108.369 29.5225H102.401L111.152 20.0454L102.831 11.0522H108.813L114.123 16.8326L119.459 11.0522H125.441L117.12 20.0454ZM129.151 29.5225V11.0522H147.85V14.9909H134.273V18.0424H147.151V21.9811H134.273V25.5837H148.038V29.5225H129.151ZM170.313 29.5225L157.852 16.8326V29.5225H152.864V11.0522H158.282L170.757 23.7959V11.0522H175.717V29.5225H170.313ZM191.848 15.0716V29.5225H186.861V15.0716H179.024V11.0522H199.699V15.0716H191.848Z" fill="#00BBFF"/>
<path d="M19.9961 0C22.2441 0 24.406 0.371606 26.4229 1.05566C30.5964 2.53367 31.8894 5.78805 32.0361 7.44238V8.1582L32.0381 8.16016V19.4404C32.038 23.0463 30.9722 25.4193 30.3389 26.1797C29.8922 26.7464 28.4302 27.9522 26.1582 28.2402C23.8864 28.5281 22.1941 27.1022 21.5586 26.5L16.918 21.6602C16.7661 21.511 15.8737 20.5613 15.2783 20.96C13.7583 25.82 17.2662 30.6076 18.0381 31.3604C18.608 31.9161 18.2184 31.9933 17.8984 31.96C16.2984 31.7333 12.7861 30.8356 11.5381 29.0596C7.55852 22.9796 10.2989 15.32 12.7588 13.0801C14.7267 11.2882 16.3766 11.6985 17.3389 12.4404L25.5186 20.2803C25.9606 20.6823 26.7988 20.695 26.7988 16.5996C26.7507 11.1602 24.1656 8.35983 22.8789 7.63965C18.5655 5.01686 13.9266 6.11473 11.3008 7.72656C7.46141 10.4517 4.95605 14.9336 4.95605 20C4.95605 28.306 11.6902 35.0395 19.9961 35.04C28.3025 35.04 35.0361 28.3064 35.0361 20V8.30469C35.0363 7.78821 35.6645 7.55842 35.9756 7.9707C38.4999 11.3183 39.9961 15.4843 39.9961 20C39.9961 31.0457 31.0418 40 19.9961 40C8.95088 39.9994 -0.00390625 31.0453 -0.00390625 20C-0.00390625 8.95466 8.95088 0.00057001 19.9961 0Z" fill="#00BBFF"/>
</svg>
