<svg width="200" height="40" viewBox="0 0 200 40" fill="none" xmlns="http://www.w3.org/2000/svg">
<path d="M66.2685 29.5215L53.8071 16.8316V29.5215H48.8199V11.0512H54.2373L66.7121 23.7949V11.0512H71.6725V29.5215H66.2685ZM99.2569 23.2975C99.2569 24.2206 99.0284 25.0899 98.5713 25.9054C98.1143 26.7209 97.4287 27.4334 96.5146 28.0428C95.6005 28.6522 94.4578 29.1361 93.0867 29.4946C91.7245 29.8441 90.1293 30.0189 88.3011 30.0189C86.4729 30.0189 84.8687 29.8441 83.4886 29.4946C82.1174 29.1361 80.9748 28.6522 80.0607 28.0428C79.1466 27.4334 78.461 26.7209 78.004 25.9054C77.5469 25.0899 77.3184 24.2206 77.3184 23.2975V11.0512H82.2922V21.5096C82.2922 22.128 82.3684 22.715 82.5207 23.2706C82.682 23.8173 82.9778 24.2968 83.4079 24.709C83.8471 25.1212 84.4565 25.4483 85.2361 25.6903C86.0248 25.9323 87.0464 26.0533 88.3011 26.0533C89.5468 26.0533 90.5595 25.9323 91.3391 25.6903C92.1188 25.4483 92.7237 25.1212 93.1539 24.709C93.593 24.2968 93.8888 23.8173 94.0411 23.2706C94.1935 22.715 94.2696 22.128 94.2696 21.5096V11.0512H99.2569V23.2975ZM117.122 20.0444L125.887 29.5215H119.905L114.125 23.2975L108.371 29.5215H102.402L111.154 20.0444L102.833 11.0512H108.815L114.125 16.8316L119.461 11.0512H125.443L117.122 20.0444ZM129.153 29.5215V11.0512H147.852V14.9899H134.275V18.0414H147.153V21.9801H134.275V25.5828H148.04V29.5215H129.153ZM170.315 29.5215L157.854 16.8316V29.5215H152.866V11.0512H158.284L170.759 23.7949V11.0512H175.719V29.5215H170.315ZM191.85 15.0706V29.5215H186.863V15.0706H179.026V11.0512H199.701V15.0706H191.85Z" fill="#00BBFF"/>
<path d="M20 0C22.2304 0 24.3755 0.365339 26.3789 1.03906C30.7208 2.55515 31.9727 5.98777 32.0518 7.59277C32.0525 7.94766 32.0526 8.30337 32.0518 8.6582C32.0508 9.0842 32.0506 9.51052 32.0508 9.93652C32.0511 10.6982 32.0502 11.46 32.0488 12.2217C32.0475 12.9576 32.0473 13.6938 32.0479 14.4297V18.1143C32.0481 18.4761 32.048 18.8383 32.0469 19.2002C32.0463 19.3841 32.0455 19.5681 32.0459 19.752C32.05 22.2332 31.7351 24.7738 29.9336 26.6436C28.6986 27.8127 26.9657 28.2865 25.2881 28.2861C25.1658 28.2864 25.0432 28.289 24.9209 28.291C23.6195 28.301 22.71 27.6277 21.8145 26.7617C21.623 26.5752 21.4321 26.3872 21.2422 26.1992C21.1234 26.0818 21.0038 25.9638 20.8848 25.8467C20.808 25.771 20.731 25.6949 20.6543 25.6191C20.6195 25.585 20.5846 25.5508 20.5488 25.5156C20.3399 25.3085 20.1412 25.0948 19.9482 24.873C19.8248 24.7339 19.6927 24.6058 19.5586 24.4766C19.3481 24.272 19.1479 24.0616 18.9561 23.8398C18.8376 23.7071 18.7099 23.5847 18.582 23.4609C18.4843 23.3629 18.3926 23.2615 18.3018 23.1572C18.0923 22.9195 17.8742 22.6902 17.6543 22.4619C17.4201 22.2183 17.1876 21.9744 16.9668 21.7188C16.7432 21.4671 16.4839 21.2692 16.2139 21.0684C16.1784 21.0394 16.1429 21.0103 16.1064 20.9805C15.9517 20.8586 15.8467 20.8039 15.6611 20.7744C15.6337 20.7701 15.6058 20.7693 15.5781 20.7715C15.4744 20.7798 15.4475 20.7851 15.3975 20.8203C15.3665 20.8422 15.3393 20.8698 15.3184 20.9014C15.1168 21.205 15.0265 21.6549 14.9854 22.1357C14.9529 22.8202 14.9609 23.4672 15.002 24.0771C15.0115 24.2191 15.0231 24.3591 15.0361 24.4971C15.036 24.4958 15.0353 24.4945 15.0352 24.4932C15.0491 24.641 15.0653 24.7865 15.083 24.9297C15.0877 24.9673 15.0927 25.0047 15.0977 25.042C15.1107 25.1411 15.1249 25.2391 15.1396 25.3359C15.1453 25.3732 15.1503 25.4104 15.1562 25.4473C15.1584 25.4607 15.1616 25.4739 15.1639 25.4872C15.1639 25.4874 15.1637 25.4875 15.1636 25.4873V25.4873C15.1635 25.4871 15.1632 25.4872 15.1633 25.4874C15.1768 25.5699 15.1913 25.6516 15.2061 25.7324C15.215 25.7815 15.224 25.8304 15.2334 25.8789C15.2294 25.8584 15.2248 25.838 15.2209 25.8174C15.2209 25.8172 15.2207 25.8173 15.2207 25.8174V25.8174C15.2207 25.8174 15.2207 25.8174 15.2207 25.8174C15.2258 25.8445 15.2311 25.8715 15.2363 25.8984C15.2351 25.892 15.2346 25.8854 15.2334 25.8789C15.2745 26.0918 15.3194 26.2989 15.3682 26.5L15.377 26.5391C15.4024 26.6427 15.4304 26.7443 15.458 26.8447C15.5237 27.0867 15.595 27.3192 15.6699 27.543C15.7247 27.7061 15.7799 27.8651 15.8389 28.0186L15.957 28.3154C16.1 28.6582 16.2534 28.9742 16.4102 29.2646C16.4251 29.2922 16.4401 29.3196 16.4551 29.3467C16.4908 29.4045 16.5276 29.4616 16.5625 29.5205C16.9959 30.2258 17.5613 31.0087 18.2461 31.5215C18.3523 31.601 18.4235 31.7944 18.3643 31.9131C18.3259 31.9899 18.2665 31.9755 18.1807 31.9736C17.2256 31.9532 16.2738 31.637 15.3711 31.3662C15.2346 31.3253 15.0976 31.2842 14.9609 31.2441C13.8312 30.9096 12.8414 30.4131 12.0127 29.5752C11.9416 29.5058 11.9417 29.5054 11.8691 29.4346C10.2285 27.7584 9.51862 24.8681 9.51562 22.585V22.1045C9.5155 21.9424 9.51374 21.7803 9.5127 21.6182C9.51048 20.9059 9.5522 20.2174 9.67773 19.5264C9.72291 19.2279 9.784 18.8972 9.86621 18.5459C9.89974 18.4026 9.9365 18.2559 9.97656 18.1064C9.97881 18.0981 9.98016 18.0894 9.98242 18.0811C10.1094 17.6108 10.2692 17.1144 10.4648 16.6152C10.4761 16.5864 10.4865 16.5572 10.498 16.5283C10.559 16.376 10.6246 16.2242 10.6924 16.0723C10.7676 15.9037 10.8469 15.7357 10.9307 15.5693C10.9428 15.5453 10.9545 15.521 10.9668 15.4971C11.0024 15.4277 11.0391 15.3588 11.0762 15.29C11.0917 15.2612 11.1062 15.2318 11.1221 15.2031C11.176 15.1055 11.232 15.0089 11.2891 14.9131C11.3774 14.7649 11.4703 14.6194 11.5664 14.4766C11.614 14.4 11.6654 14.324 11.7197 14.25C11.7252 14.2425 11.7308 14.235 11.7363 14.2275C11.7394 14.2234 11.742 14.2189 11.7451 14.2148C11.8686 14.0346 12.0125 13.8569 12.1699 13.6865C12.211 13.6397 12.2528 13.5935 12.2949 13.5479C12.3112 13.5302 12.3273 13.5125 12.3438 13.4951C12.4903 13.3394 12.6436 13.1915 12.8037 13.0527C12.81 13.0473 12.816 13.0415 12.8223 13.0361C12.8414 13.0197 12.8615 13.0044 12.8809 12.9883C12.9409 12.938 13.0015 12.8884 13.0635 12.8408C13.0815 12.8269 13.0999 12.8135 13.1182 12.7998C13.1892 12.7466 13.2614 12.695 13.335 12.6455C13.3451 12.6387 13.3551 12.6317 13.3652 12.625C13.3719 12.6206 13.379 12.6167 13.3857 12.6123C13.4704 12.5567 13.5566 12.5035 13.6445 12.4531C13.6509 12.4495 13.6567 12.445 13.6631 12.4414C13.7569 12.3882 13.8526 12.3379 13.9502 12.291C13.9611 12.2858 13.9725 12.2815 13.9834 12.2764C13.9869 12.2747 13.9906 12.2731 13.9941 12.2715C14.1404 12.197 14.2877 12.1281 14.4453 12.0703C14.4824 12.0549 14.5194 12.0393 14.5576 12.0234C15.1179 11.7972 15.8956 11.7334 16.4766 11.918C17.3426 12.3251 18.0215 13 18.7012 13.6514C18.7454 13.6936 18.7459 13.6942 18.791 13.7373C19.0113 13.9487 19.2247 14.1624 19.4248 14.3926C19.651 14.648 19.8915 14.8875 20.1348 15.127C20.1826 15.1743 20.231 15.2218 20.2803 15.2705C20.4103 15.399 20.5407 15.528 20.6709 15.6562C20.8078 15.7911 20.9443 15.9265 21.0811 16.0615C21.311 16.2885 21.5414 16.5154 21.7715 16.7422C22.0365 17.0034 22.3016 17.2649 22.5664 17.5264C22.7947 17.7518 23.0235 17.9769 23.252 18.2021C23.388 18.3363 23.5242 18.4712 23.6602 18.6055C23.8116 18.7551 23.9635 18.9043 24.1152 19.0537C24.1817 19.1194 24.1823 19.1196 24.25 19.1865C24.6016 19.5321 24.9675 19.8557 25.3555 20.1611C25.4015 20.1975 25.4477 20.234 25.4951 20.2715C25.6775 20.4086 25.7784 20.4199 26.0049 20.417C26.0803 20.4163 26.0805 20.4168 26.1572 20.416C26.2299 20.4148 26.2974 20.3755 26.3301 20.3105C26.4557 20.0605 26.5056 19.8138 26.5547 19.5312C26.5635 19.4843 26.5719 19.437 26.5811 19.3887C26.7477 18.4623 26.7946 17.539 26.793 16.5996C26.793 16.5439 26.7929 16.4881 26.793 16.4307C26.7919 15.586 26.738 14.7771 26.5859 13.9502C26.005 11.6488 25.5591 10.8669 25.0381 9.90918C24.9919 9.82991 24.9484 9.74838 24.9062 9.66699C24.6411 9.20507 24.2769 8.84327 23.8975 8.4707C23.8501 8.42399 23.8027 8.37723 23.7539 8.3291C23.226 7.83616 22.6162 7.44478 21.9589 7.13367C21.9577 7.13313 21.9569 7.1321 21.9565 7.13086V7.13086C21.9562 7.12962 21.9554 7.1286 21.9543 7.12805C21.9103 7.10731 21.8438 7.07619 21.7852 7.0498C21.7556 7.0365 21.7279 7.02448 21.7061 7.01562C21.6954 7.01133 21.6859 7.00768 21.6785 7.00513C21.678 7.00497 21.6776 7.0047 21.6772 7.00435V7.00435C21.6769 7.00406 21.6766 7.00382 21.6762 7.00366C20.0488 6.30544 18.1601 6.08343 16.46 6.11914C16.0207 6.1363 15.5938 6.20173 15.1641 6.29004C15.1156 6.29997 15.0666 6.31008 15.0166 6.32031C14.4032 6.44928 13.8121 6.60655 13.2285 6.83496C13.1509 6.8638 13.1507 6.86403 13.0713 6.89355C11.1719 7.62915 9.52085 8.99111 8.30957 10.5977C8.27638 10.6409 8.24318 10.6849 8.20898 10.7295C7.49904 11.6904 6.92291 12.7557 6.52246 13.876C6.48724 13.9734 6.45018 14.0702 6.41309 14.167C6.14277 14.8801 5.93724 15.6246 5.82227 16.3779C5.81336 16.4313 5.8041 16.4851 5.79492 16.54C5.63224 17.5704 5.58191 18.6039 5.58594 19.6455C5.58653 19.8281 5.58664 20.0107 5.58594 20.1934C5.58549 20.8917 5.61773 21.5753 5.71094 22.2676C5.71647 22.3102 5.72184 22.3535 5.72754 22.3975C6.11666 25.3845 7.6045 28.0653 9.74609 30.1748C9.79047 30.2205 9.83515 30.2664 9.88086 30.3135C10.251 30.6903 10.6428 31.0128 11.0732 31.3203C11.1281 31.3599 11.1828 31.3997 11.2393 31.4404C12.4721 32.3063 13.7987 32.9907 15.2188 33.501C15.2572 33.5149 15.2964 33.5296 15.3359 33.5439C15.5709 33.6285 15.8081 33.7042 16.0479 33.7744C16.0916 33.7874 16.1356 33.8001 16.1807 33.8135C18.2459 34.4153 20.5017 34.5604 22.626 34.21C22.6726 34.2024 22.7195 34.1953 22.7676 34.1875C25.3167 33.7607 27.7049 32.7269 29.7012 31.1016C29.7355 31.0738 29.7703 31.0462 29.8057 31.0176C30.5031 30.4487 31.13 29.8399 31.6914 29.1387C31.7754 29.0398 31.8593 28.9406 31.9434 28.8418C32.3986 28.2915 32.7712 27.6816 33.1289 27.0664C33.151 27.0286 33.1736 26.9911 33.1963 26.9521C33.9849 25.5847 34.4556 24.0818 34.7764 22.5469C34.7871 22.4959 34.7985 22.4451 34.8096 22.3926C34.9912 21.4727 35.0243 20.5565 35.0186 19.6221C35.0183 19.5027 35.0178 19.383 35.0176 19.2637C35.017 19.0091 35.0158 18.7546 35.0146 18.5C35.0129 18.0971 35.0124 17.6939 35.0117 17.291C35.0098 16.2914 35.0064 15.2916 35.0029 14.292C35.0003 13.513 34.9982 12.7341 34.9971 11.9551C34.9971 11.9443 34.9971 11.9336 34.9971 11.9229L34.9977 8.35531C34.9979 7.80265 35.6676 7.55662 35.9996 7.99846C38.5113 11.3414 40 15.4967 40 20C40 23.3633 39.1678 26.5317 37.7012 29.3135C37.6954 29.3244 37.6904 29.3357 37.6846 29.3467C35.1282 34.1735 30.6544 37.8266 25.2773 39.2939C25.2533 39.3005 25.2292 39.307 25.2051 39.3135C24.7541 39.4347 24.297 39.541 23.834 39.6309C23.8025 39.637 23.7708 39.6425 23.7393 39.6484C23.2848 39.7344 22.8251 39.8057 22.3604 39.8604C22.3148 39.8657 22.2693 39.8709 22.2236 39.876C22.0059 39.9001 21.7872 39.9214 21.5674 39.9385C21.5514 39.9397 21.5355 39.9412 21.5195 39.9424C21.3066 39.9584 21.0927 39.9692 20.8779 39.9785C20.8083 39.9815 20.7387 39.985 20.6689 39.9873C20.4468 39.9946 20.2239 40 20 40C19.8417 40 19.6838 39.997 19.5264 39.9932C19.483 39.9922 19.4398 39.9905 19.3965 39.9893C19.3107 39.9866 19.2251 39.9832 19.1396 39.9795C8.94494 39.548 0.726228 31.4871 0.046875 21.3584C0.0440213 21.3164 0.0416643 21.2744 0.0390625 21.2324C0.03288 21.1307 0.0271179 21.0289 0.0224609 20.9268C0.00804866 20.6196 0 20.3107 0 20C0 18.9719 0.0769556 17.9619 0.226562 16.9756C0.241083 16.8799 0.258542 16.7847 0.274414 16.6895C0.341307 16.2879 0.41835 15.8901 0.508789 15.4971C0.532929 15.3922 0.559178 15.2879 0.584961 15.1836C0.637422 14.9714 0.691803 14.7602 0.750977 14.5508C0.775471 14.4641 0.802495 14.3782 0.828125 14.292C0.851386 14.2137 0.874248 14.1355 0.898438 14.0576C0.917328 13.9968 0.937577 13.9365 0.957031 13.876C0.985178 13.7884 1.0117 13.7003 1.04102 13.6133C1.06281 13.5486 1.08596 13.4843 1.1084 13.4199C1.1392 13.3315 1.17014 13.2431 1.20215 13.1553C1.22254 13.0993 1.24475 13.044 1.26562 12.9883C1.35625 12.7463 1.45017 12.506 1.5498 12.2686C1.66299 11.9988 1.7827 11.7324 1.90723 11.4688C1.92185 11.4378 1.9364 11.4068 1.95117 11.376C1.99627 11.2818 2.04235 11.1881 2.08887 11.0947C2.11841 11.0354 2.14762 10.976 2.17773 10.917C2.2098 10.8542 2.24269 10.7919 2.27539 10.7295C2.31177 10.6601 2.3476 10.5904 2.38477 10.5215C2.42564 10.4457 2.46696 10.3701 2.50879 10.2949C2.5452 10.2294 2.58104 10.1637 2.61816 10.0986C2.69114 9.9708 2.76708 9.84479 2.84277 9.71875C2.84441 9.71602 2.84504 9.71269 2.84668 9.70996C2.91457 9.59702 2.98464 9.48549 3.05469 9.37402C3.07219 9.34618 3.08881 9.31779 3.10645 9.29004C3.16084 9.20443 3.21681 9.11988 3.27246 9.03516C3.31837 8.96526 3.36437 8.89546 3.41113 8.82617C3.44913 8.76988 3.48782 8.71409 3.52637 8.6582C3.5657 8.60118 3.60462 8.5439 3.64453 8.4873C3.70182 8.40607 3.7599 8.32545 3.81836 8.24512C3.86384 8.18262 3.90987 8.12054 3.95605 8.05859C3.98053 8.02576 4.00462 7.99264 4.0293 7.95996C4.09719 7.87006 4.16501 7.78012 4.23438 7.69141C4.28016 7.63285 4.3276 7.57561 4.37402 7.51758C4.42465 7.45429 4.47499 7.39078 4.52637 7.32812C4.58557 7.25592 4.64587 7.18464 4.70605 7.11328C4.73839 7.07495 4.77012 7.03613 4.80273 6.99805C4.89547 6.88975 4.98997 6.78303 5.08496 6.67676C5.09357 6.66712 5.10172 6.65708 5.11035 6.64746C5.19299 6.55537 5.27702 6.46456 5.36133 6.37402C5.3921 6.34098 5.42213 6.30725 5.45312 6.27441C5.53894 6.1835 5.62638 6.09417 5.71387 6.00488C5.73256 5.98581 5.75077 5.96627 5.76953 5.94727C5.83682 5.87913 5.9044 5.8113 5.97266 5.74414C6.02746 5.69022 6.08228 5.6363 6.1377 5.58301C6.1996 5.52347 6.26253 5.465 6.3252 5.40625C6.37376 5.36072 6.42266 5.31555 6.47168 5.27051C6.55687 5.19222 6.64295 5.1149 6.72949 5.03809C6.75588 5.01467 6.78208 4.99105 6.80859 4.96777C6.892 4.89453 6.97592 4.82187 7.06055 4.75C7.10369 4.71336 7.14698 4.6769 7.19043 4.64062C7.26036 4.58224 7.33063 4.52424 7.40137 4.4668C7.45365 4.42434 7.50587 4.38178 7.55859 4.33984C7.63298 4.28066 7.70796 4.2222 7.7832 4.16406C7.83632 4.12303 7.88982 4.0825 7.94336 4.04199C8.00788 3.99317 8.07257 3.94454 8.1377 3.89648C8.20516 3.84671 8.27271 3.79699 8.34082 3.74805C8.41671 3.69351 8.49364 3.64041 8.57031 3.58691C8.61001 3.55922 8.64955 3.53132 8.68945 3.50391C8.77427 3.44564 8.85956 3.38804 8.94531 3.33105C9.00538 3.29114 9.06545 3.25119 9.12598 3.21191C9.19459 3.16738 9.26382 3.12379 9.33301 3.08008C9.39285 3.04227 9.45242 3.00398 9.5127 2.9668C9.60687 2.90869 9.70167 2.8515 9.79688 2.79492C9.82672 2.77718 9.85677 2.75977 9.88672 2.74219C9.98677 2.68343 10.0873 2.62542 10.1885 2.56836C10.2395 2.53958 10.2905 2.51076 10.3418 2.48242C10.4227 2.43771 10.5043 2.3942 10.5859 2.35059C10.6479 2.31744 10.7101 2.28446 10.7725 2.25195C10.8563 2.20825 10.9408 2.16559 11.0254 2.12305C11.0816 2.0948 11.1379 2.0668 11.1943 2.03906C11.2787 1.99762 11.3632 1.9563 11.4482 1.91602C11.5093 1.8871 11.5705 1.85839 11.6318 1.83008C11.7233 1.78787 11.815 1.74594 11.9072 1.70508C11.9511 1.68566 11.9951 1.66657 12.0391 1.64746C12.154 1.59752 12.2697 1.54881 12.3857 1.50098C12.4127 1.48986 12.4397 1.47878 12.4668 1.46777C12.5812 1.42122 12.6961 1.37554 12.8115 1.33105C12.8533 1.31495 12.8956 1.30001 12.9375 1.28418C13.0517 1.24107 13.1661 1.19829 13.2812 1.15723C13.3111 1.14658 13.3412 1.13649 13.3711 1.12598C13.4953 1.08236 13.6198 1.03927 13.7451 0.998047C13.7783 0.987145 13.8115 0.976553 13.8447 0.96582C13.9576 0.929354 14.0709 0.89388 14.1846 0.859375C14.2346 0.844192 14.2848 0.829254 14.335 0.814453C14.4375 0.784236 14.5404 0.755174 14.6436 0.726562C14.7108 0.707921 14.7782 0.68983 14.8457 0.671875C14.9296 0.649568 15.0134 0.626709 15.0977 0.605469C15.1732 0.586425 15.2493 0.568962 15.3252 0.550781C15.4187 0.528385 15.5124 0.506429 15.6064 0.485352C15.6542 0.474646 15.7021 0.464465 15.75 0.454102C15.864 0.429433 15.9781 0.404552 16.0928 0.381836C16.1496 0.370582 16.2067 0.36038 16.2637 0.349609C16.364 0.330649 16.4646 0.312378 16.5654 0.294922C16.6266 0.284343 16.6877 0.273694 16.749 0.263672C16.8633 0.244996 16.9779 0.227669 17.0928 0.210938C17.1308 0.205394 17.1689 0.199664 17.207 0.194336C17.319 0.178685 17.4314 0.164179 17.5439 0.150391C17.6193 0.141159 17.6949 0.132414 17.7705 0.124023C17.8638 0.113681 17.9572 0.103783 18.0508 0.0947266C18.1158 0.0884394 18.1809 0.0828117 18.2461 0.0771484C18.3552 0.0676651 18.4646 0.0585041 18.5742 0.0507812C18.623 0.047347 18.6718 0.0450763 18.7207 0.0419922C18.8373 0.0346304 18.9541 0.0278157 19.0713 0.0224609C19.1324 0.0196667 19.1936 0.0168926 19.2549 0.0146484C19.3624 0.0107095 19.4702 0.00711705 19.5781 0.00488281C19.5963 0.00450573 19.6146 0.00423456 19.6328 0.00390625C19.6432 0.00398763 19.6536 0.00381767 19.6641 0.00390625C19.7758 0.00206551 19.8878 0 20 0Z" fill="#00BBFF"/>
</svg>
