<svg width="200" height="41" viewBox="0 0 200 41" fill="none" xmlns="http://www.w3.org/2000/svg">
<path d="M66.2685 29.749L53.8071 17.0591V29.749H48.8199V11.2788H54.2373L66.7121 24.0224V11.2788H71.6725V29.749H66.2685ZM99.2569 23.5251C99.2569 24.4481 99.0284 25.3174 98.5713 26.1329C98.1143 26.9485 97.4287 27.6609 96.5146 28.2703C95.6005 28.8797 94.4578 29.3637 93.0867 29.7221C91.7245 30.0716 90.1293 30.2464 88.3011 30.2464C86.4729 30.2464 84.8687 30.0716 83.4886 29.7221C82.1174 29.3637 80.9748 28.8797 80.0607 28.2703C79.1466 27.6609 78.461 26.9485 78.004 26.1329C77.5469 25.3174 77.3184 24.4481 77.3184 23.5251V11.2788H82.2922V21.7372C82.2922 22.3555 82.3684 22.9425 82.5207 23.4982C82.682 24.0448 82.9778 24.5243 83.4079 24.9365C83.8471 25.3488 84.4565 25.6759 85.2361 25.9179C86.0248 26.1598 87.0464 26.2808 88.3011 26.2808C89.5468 26.2808 90.5595 26.1598 91.3391 25.9179C92.1188 25.6759 92.7237 25.3488 93.1539 24.9365C93.593 24.5243 93.8888 24.0448 94.0411 23.4982C94.1935 22.9425 94.2696 22.3555 94.2696 21.7372V11.2788H99.2569V23.5251ZM117.122 20.2719L125.887 29.749H119.905L114.125 23.5251L108.371 29.749H102.402L111.154 20.2719L102.833 11.2788H108.815L114.125 17.0591L119.461 11.2788H125.443L117.122 20.2719ZM129.153 29.749V11.2788H147.852V15.2175H134.275V18.269H147.153V22.2077H134.275V25.8103H148.04V29.749H129.153ZM170.315 29.749L157.854 17.0591V29.749H152.866V11.2788H158.284L170.759 24.0224V11.2788H175.719V29.749H170.315ZM191.85 15.2981V29.749H186.863V15.2981H179.026V11.2788H199.701V15.2981H191.85Z" fill="white"/>
<path d="M20 0.227539C22.2304 0.227539 24.3755 0.592878 26.3789 1.2666C30.7208 2.78269 31.9727 6.21531 32.0518 7.82031C32.0525 8.1752 32.0526 8.53091 32.0518 8.88574C32.0508 9.31174 32.0506 9.73806 32.0508 10.1641C32.0511 10.9258 32.0502 11.6875 32.0488 12.4492C32.0475 13.1851 32.0473 13.9213 32.0479 14.6572V18.3418C32.0481 18.7037 32.048 19.0659 32.0469 19.4277C32.0463 19.6116 32.0455 19.7956 32.0459 19.9795C32.05 22.4608 31.7351 25.0013 29.9336 26.8711C28.6986 28.0402 26.9657 28.514 25.2881 28.5137C25.1658 28.5139 25.0432 28.5165 24.9209 28.5186C23.6195 28.5285 22.71 27.8553 21.8145 26.9893C21.623 26.8028 21.4321 26.6147 21.2422 26.4268C21.1234 26.3093 21.0038 26.1913 20.8848 26.0742C20.808 25.9985 20.731 25.9224 20.6543 25.8467C20.6195 25.8125 20.5846 25.7784 20.5488 25.7432C20.3399 25.536 20.1412 25.3223 19.9482 25.1006C19.8248 24.9615 19.6927 24.8333 19.5586 24.7041C19.3481 24.4995 19.1479 24.2891 18.9561 24.0674C18.8376 23.9346 18.7099 23.8123 18.582 23.6885C18.4843 23.5904 18.3926 23.4891 18.3018 23.3848C18.0923 23.1471 17.8742 22.9178 17.6543 22.6895C17.4201 22.4458 17.1876 22.202 16.9668 21.9463C16.7432 21.6947 16.4839 21.4968 16.2139 21.2959C16.1784 21.267 16.1429 21.2378 16.1064 21.208C15.9517 21.0862 15.8467 21.0314 15.6611 21.002C15.6337 20.9976 15.6058 20.9968 15.5781 20.999C15.4744 21.0073 15.4475 21.0127 15.3975 21.0479C15.3665 21.0697 15.3393 21.0973 15.3184 21.1289C15.1168 21.4326 15.0265 21.8825 14.9854 22.3633C14.9529 23.0477 14.9609 23.6948 15.002 24.3047C15.0115 24.4467 15.0231 24.5866 15.0361 24.7246C15.036 24.7233 15.0353 24.722 15.0352 24.7207C15.0491 24.8685 15.0653 25.014 15.083 25.1572C15.0877 25.1948 15.0927 25.2322 15.0977 25.2695C15.1107 25.3686 15.1249 25.4666 15.1396 25.5635C15.1453 25.6007 15.1503 25.6379 15.1562 25.6748C15.1584 25.6882 15.1616 25.7014 15.1639 25.7147C15.1639 25.7149 15.1637 25.715 15.1636 25.7148C15.1635 25.7147 15.1632 25.7148 15.1633 25.7149C15.1768 25.7975 15.1913 25.8791 15.2061 25.96C15.215 26.0091 15.224 26.0579 15.2334 26.1064C15.2294 26.0859 15.2248 26.0655 15.2209 26.0449C15.2209 26.0448 15.2207 26.0448 15.2207 26.0449C15.2207 26.0449 15.2207 26.0449 15.2207 26.0449C15.2258 26.072 15.2311 26.0991 15.2363 26.126C15.2351 26.1195 15.2346 26.1129 15.2334 26.1064C15.2745 26.3194 15.3194 26.5264 15.3682 26.7275L15.377 26.7666C15.4024 26.8702 15.4304 26.9719 15.458 27.0723C15.5237 27.3142 15.595 27.5468 15.6699 27.7705C15.7247 27.9337 15.7799 28.0926 15.8389 28.2461L15.957 28.543C16.1 28.8858 16.2534 29.2017 16.4102 29.4922C16.4251 29.5198 16.4401 29.5471 16.4551 29.5742C16.4908 29.632 16.5276 29.6892 16.5625 29.748C16.9959 30.4534 17.5613 31.2363 18.2461 31.749C18.3523 31.8285 18.4235 32.0219 18.3643 32.1406C18.3259 32.2174 18.2665 32.203 18.1807 32.2012C17.2256 32.1808 16.2738 31.8645 15.3711 31.5938C15.2346 31.5528 15.0976 31.5118 14.9609 31.4717C13.8312 31.1372 12.8414 30.6406 12.0127 29.8027C11.9416 29.7333 11.9417 29.733 11.8691 29.6621C10.2285 27.986 9.51862 25.0956 9.51562 22.8125V22.332C9.5155 22.1699 9.51374 22.0078 9.5127 21.8457C9.51048 21.1335 9.5522 20.4449 9.67773 19.7539C9.72291 19.4555 9.784 19.1248 9.86621 18.7734C9.89974 18.6302 9.9365 18.4834 9.97656 18.334C9.97881 18.3256 9.98016 18.317 9.98242 18.3086C10.1094 17.8384 10.2692 17.3419 10.4648 16.8428C10.4761 16.814 10.4865 16.7847 10.498 16.7559C10.559 16.6036 10.6246 16.4517 10.6924 16.2998C10.7676 16.1312 10.8469 15.9632 10.9307 15.7969C10.9428 15.7728 10.9545 15.7486 10.9668 15.7246C11.0024 15.6552 11.0391 15.5863 11.0762 15.5176C11.0917 15.4888 11.1062 15.4593 11.1221 15.4307C11.176 15.333 11.232 15.2365 11.2891 15.1406C11.3774 14.9924 11.4703 14.8469 11.5664 14.7041C11.614 14.6276 11.6654 14.5515 11.7197 14.4775C11.7252 14.47 11.7308 14.4625 11.7363 14.4551C11.7394 14.451 11.742 14.4465 11.7451 14.4424C11.8686 14.2622 12.0125 14.0844 12.1699 13.9141C12.211 13.8672 12.2528 13.8211 12.2949 13.7754C12.3112 13.7578 12.3273 13.7401 12.3438 13.7227C12.4903 13.567 12.6436 13.419 12.8037 13.2803C12.81 13.2748 12.816 13.2691 12.8223 13.2637C12.8414 13.2472 12.8615 13.232 12.8809 13.2158C12.9409 13.1655 13.0015 13.116 13.0635 13.0684C13.0815 13.0545 13.0999 13.041 13.1182 13.0273C13.1892 12.9741 13.2614 12.9226 13.335 12.873C13.3451 12.8662 13.3551 12.8593 13.3652 12.8525C13.3719 12.8481 13.379 12.8442 13.3857 12.8398C13.4704 12.7843 13.5566 12.7311 13.6445 12.6807C13.6509 12.677 13.6567 12.6725 13.6631 12.6689C13.7569 12.6158 13.8526 12.5655 13.9502 12.5186C13.9611 12.5133 13.9725 12.5091 13.9834 12.5039C13.9869 12.5022 13.9906 12.5007 13.9941 12.499C14.1404 12.4245 14.2877 12.3556 14.4453 12.2979C14.4824 12.2824 14.5194 12.2668 14.5576 12.251C15.1179 12.0248 15.8956 11.961 16.4766 12.1455C17.3426 12.5526 18.0215 13.2275 18.7012 13.8789C18.7454 13.9212 18.7459 13.9218 18.791 13.9648C19.0113 14.1762 19.2247 14.39 19.4248 14.6201C19.651 14.8755 19.8915 15.1151 20.1348 15.3545C20.1826 15.4018 20.231 15.4493 20.2803 15.498C20.4103 15.6265 20.5407 15.7555 20.6709 15.8838C20.8078 16.0187 20.9443 16.1541 21.0811 16.2891C21.311 16.516 21.5414 16.743 21.7715 16.9697C22.0365 17.2309 22.3016 17.4924 22.5664 17.7539C22.7947 17.9794 23.0235 18.2044 23.252 18.4297C23.388 18.5638 23.5242 18.6987 23.6602 18.833C23.8116 18.9826 23.9635 19.1319 24.1152 19.2812C24.1817 19.347 24.1823 19.3471 24.25 19.4141C24.6016 19.7596 24.9675 20.0832 25.3555 20.3887C25.4015 20.4251 25.4477 20.4615 25.4951 20.499C25.6775 20.6361 25.7784 20.6474 26.0049 20.6445C26.0803 20.6438 26.0805 20.6443 26.1572 20.6436C26.2299 20.6424 26.2974 20.603 26.3301 20.5381C26.4557 20.2881 26.5056 20.0413 26.5547 19.7588C26.5635 19.7119 26.5719 19.6646 26.5811 19.6162C26.7477 18.6898 26.7946 17.7665 26.793 16.8271C26.793 16.7714 26.7929 16.7156 26.793 16.6582C26.7919 15.8135 26.738 15.0047 26.5859 14.1777C26.005 11.8763 25.5591 11.0944 25.0381 10.1367C24.9919 10.0574 24.9484 9.97592 24.9062 9.89453C24.6411 9.43261 24.2769 9.0708 23.8975 8.69824C23.8501 8.65153 23.8027 8.60477 23.7539 8.55664C23.226 8.0637 22.6162 7.67232 21.9589 7.36121C21.9577 7.36067 21.9569 7.35963 21.9565 7.3584C21.9562 7.35716 21.9554 7.35614 21.9543 7.35559C21.9103 7.33485 21.8438 7.30373 21.7852 7.27734C21.7556 7.26404 21.7279 7.25202 21.7061 7.24316C21.6954 7.23887 21.6859 7.23522 21.6784 7.23267C21.678 7.2325 21.6776 7.23224 21.6772 7.23189C21.6769 7.2316 21.6766 7.23136 21.6762 7.2312C20.0488 6.53298 18.1601 6.31097 16.46 6.34668C16.0207 6.36384 15.5938 6.42927 15.1641 6.51758C15.1156 6.52751 15.0666 6.53762 15.0166 6.54785C14.4032 6.67682 13.8121 6.83408 13.2285 7.0625C13.1509 7.09134 13.1507 7.09157 13.0713 7.12109C11.1719 7.85669 9.52085 9.21865 8.30957 10.8252C8.27638 10.8685 8.24318 10.9124 8.20898 10.957C7.49904 11.918 6.92291 12.9833 6.52246 14.1035C6.48724 14.2009 6.45018 14.2978 6.41309 14.3945C6.14277 15.1076 5.93724 15.8521 5.82227 16.6055C5.81336 16.6588 5.8041 16.7126 5.79492 16.7676C5.63224 17.7979 5.58191 18.8314 5.58594 19.873C5.58653 20.0557 5.58664 20.2383 5.58594 20.4209C5.58549 21.1193 5.61773 21.8028 5.71094 22.4951C5.71647 22.5378 5.72184 22.581 5.72754 22.625C6.11666 25.612 7.6045 28.2928 9.74609 30.4023C9.79047 30.448 9.83515 30.494 9.88086 30.541C10.251 30.9179 10.6428 31.2403 11.0732 31.5479C11.1281 31.5874 11.1828 31.6272 11.2393 31.668C12.4721 32.5338 13.7987 33.2182 15.2188 33.7285C15.2572 33.7425 15.2964 33.7571 15.3359 33.7715C15.5709 33.856 15.8081 33.9318 16.0479 34.002C16.0916 34.0149 16.1356 34.0276 16.1807 34.041C18.2459 34.6428 20.5017 34.7879 22.626 34.4375C22.6726 34.4299 22.7195 34.4228 22.7676 34.415C25.3167 33.9883 27.7049 32.9544 29.7012 31.3291C29.7355 31.3013 29.7703 31.2737 29.8057 31.2451C30.5031 30.6762 31.13 30.0674 31.6914 29.3662C31.7754 29.2674 31.8593 29.1681 31.9434 29.0693C32.3986 28.519 32.7712 27.9091 33.1289 27.2939C33.151 27.2562 33.1736 27.2186 33.1963 27.1797C33.9849 25.8122 34.4556 24.3094 34.7764 22.7744C34.7871 22.7235 34.7985 22.6726 34.8096 22.6201C34.9912 21.7002 35.0243 20.7841 35.0186 19.8496C35.0183 19.7303 35.0178 19.6106 35.0176 19.4912C35.017 19.2367 35.0158 18.9821 35.0146 18.7275C35.0129 18.3246 35.0124 17.9214 35.0117 17.5186C35.0098 16.519 35.0064 15.5191 35.0029 14.5195C35.0003 13.7406 34.9982 12.9616 34.9971 12.1826C34.9971 12.1719 34.9971 12.1611 34.9971 12.1504L34.9977 8.58285C34.9979 8.03019 35.6676 7.78416 35.9996 8.226C38.5113 11.5689 40 15.7243 40 20.2275C40 23.5908 39.1678 26.7593 37.7012 29.541C37.6954 29.552 37.6904 29.5633 37.6846 29.5742C35.1282 34.401 30.6544 38.0541 25.2773 39.5215C25.2533 39.5281 25.2292 39.5345 25.2051 39.541C24.7541 39.6623 24.297 39.7685 23.834 39.8584C23.8025 39.8645 23.7708 39.87 23.7393 39.876C23.2848 39.9619 22.8251 40.0332 22.3604 40.0879C22.3148 40.0933 22.2693 40.0985 22.2236 40.1035C22.0059 40.1276 21.7872 40.149 21.5674 40.166C21.5514 40.1673 21.5355 40.1687 21.5195 40.1699C21.3066 40.1859 21.0927 40.1968 20.8779 40.2061C20.8083 40.2091 20.7387 40.2125 20.6689 40.2148C20.4468 40.2221 20.2239 40.2275 20 40.2275C19.8417 40.2275 19.6838 40.2245 19.5264 40.2207C19.483 40.2197 19.4398 40.2181 19.3965 40.2168C19.3107 40.2142 19.2251 40.2107 19.1396 40.207C8.94494 39.7755 0.726228 31.7146 0.046875 21.5859C0.0440213 21.544 0.0416643 21.502 0.0390625 21.46C0.03288 21.3583 0.0271179 21.2564 0.0224609 21.1543C0.00804866 20.8471 0 20.5382 0 20.2275C0 19.1995 0.0769556 18.1894 0.226562 17.2031C0.241083 17.1074 0.258542 17.0123 0.274414 16.917C0.341307 16.5155 0.41835 16.1177 0.508789 15.7246C0.532929 15.6197 0.559178 15.5154 0.584961 15.4111C0.637422 15.199 0.691803 14.9878 0.750977 14.7783C0.775471 14.6916 0.802495 14.6057 0.828125 14.5195C0.851386 14.4413 0.874248 14.363 0.898438 14.2852C0.917328 14.2244 0.937577 14.1641 0.957031 14.1035C0.985178 14.0159 1.0117 13.9279 1.04102 13.8408C1.06281 13.7761 1.08596 13.7119 1.1084 13.6475C1.1392 13.559 1.17014 13.4707 1.20215 13.3828C1.22254 13.3268 1.24475 13.2716 1.26562 13.2158C1.35625 12.9738 1.45017 12.7336 1.5498 12.4961C1.66299 12.2263 1.7827 11.9599 1.90723 11.6963C1.92185 11.6653 1.9364 11.6344 1.95117 11.6035C1.99627 11.5093 2.04235 11.4157 2.08887 11.3223C2.11841 11.263 2.14762 11.2035 2.17773 11.1445C2.2098 11.0817 2.24269 11.0194 2.27539 10.957C2.31177 10.8876 2.3476 10.818 2.38477 10.749C2.42564 10.6732 2.46696 10.5977 2.50879 10.5225C2.5452 10.457 2.58104 10.3912 2.61816 10.3262C2.69114 10.1983 2.76708 10.0723 2.84277 9.94629C2.84441 9.94356 2.84504 9.94023 2.84668 9.9375C2.91457 9.82456 2.98464 9.71303 3.05469 9.60156C3.07219 9.57372 3.08881 9.54533 3.10645 9.51758C3.16084 9.43196 3.21681 9.34742 3.27246 9.2627C3.31837 9.1928 3.36437 9.12299 3.41113 9.05371C3.44913 8.99742 3.48782 8.94163 3.52637 8.88574C3.5657 8.82872 3.60462 8.77143 3.64453 8.71484C3.70182 8.63361 3.7599 8.55299 3.81836 8.47266C3.86384 8.41016 3.90987 8.34808 3.95605 8.28613C3.98053 8.2533 4.00462 8.22018 4.0293 8.1875C4.09719 8.09759 4.16501 8.00766 4.23438 7.91895C4.28016 7.86039 4.3276 7.80315 4.37402 7.74512C4.42465 7.68183 4.47499 7.61832 4.52637 7.55566C4.58557 7.48346 4.64587 7.41218 4.70605 7.34082C4.73839 7.30249 4.77012 7.26367 4.80273 7.22559C4.89547 7.11729 4.98997 7.01056 5.08496 6.9043C5.09357 6.89466 5.10172 6.88462 5.11035 6.875C5.19299 6.78291 5.27702 6.6921 5.36133 6.60156C5.3921 6.56852 5.42213 6.53479 5.45312 6.50195C5.53894 6.41104 5.62638 6.32171 5.71387 6.23242C5.73256 6.21335 5.75077 6.1938 5.76953 6.1748C5.83682 6.10667 5.90441 6.03884 5.97266 5.97168C6.02746 5.91776 6.08228 5.86384 6.1377 5.81055C6.1996 5.75101 6.26253 5.69253 6.3252 5.63379C6.37376 5.58826 6.42266 5.54309 6.47168 5.49805C6.55687 5.41976 6.64295 5.34244 6.72949 5.26562C6.75588 5.24221 6.78208 5.21859 6.80859 5.19531C6.892 5.12207 6.97592 5.04941 7.06055 4.97754C7.10369 4.9409 7.14698 4.90444 7.19043 4.86816C7.26036 4.80978 7.33063 4.75178 7.40137 4.69434C7.45365 4.65188 7.50587 4.60932 7.55859 4.56738C7.63298 4.5082 7.70796 4.44974 7.7832 4.3916C7.83632 4.35057 7.88982 4.31004 7.94336 4.26953C8.00788 4.22071 8.07257 4.17208 8.1377 4.12402C8.20516 4.07424 8.27271 4.02453 8.34082 3.97559C8.41671 3.92105 8.49364 3.86795 8.57031 3.81445C8.61001 3.78676 8.64955 3.75885 8.68945 3.73145C8.77427 3.67318 8.85956 3.61558 8.94531 3.55859C9.00538 3.51868 9.06545 3.47873 9.12598 3.43945C9.19459 3.39492 9.26382 3.35133 9.33301 3.30762C9.39285 3.26981 9.45242 3.23152 9.5127 3.19434C9.60687 3.13623 9.70167 3.07904 9.79688 3.02246C9.82672 3.00472 9.85677 2.98731 9.88672 2.96973C9.98677 2.91097 10.0873 2.85296 10.1885 2.7959C10.2395 2.76712 10.2905 2.7383 10.3418 2.70996C10.4227 2.66525 10.5043 2.62174 10.5859 2.57812C10.6479 2.54498 10.7101 2.512 10.7725 2.47949C10.8563 2.43579 10.9408 2.39313 11.0254 2.35059C11.0816 2.32234 11.1379 2.29434 11.1943 2.2666C11.2787 2.22516 11.3632 2.18384 11.4482 2.14355C11.5093 2.11464 11.5705 2.08593 11.6318 2.05762C11.7233 2.01541 11.815 1.97347 11.9072 1.93262C11.9511 1.9132 11.9951 1.89411 12.0391 1.875C12.154 1.82506 12.2697 1.77635 12.3857 1.72852C12.4127 1.7174 12.4397 1.70632 12.4668 1.69531C12.5812 1.64876 12.6961 1.60308 12.8115 1.55859C12.8533 1.54249 12.8956 1.52755 12.9375 1.51172C13.0517 1.46861 13.1661 1.42583 13.2812 1.38477C13.3111 1.37412 13.3412 1.36402 13.3711 1.35352C13.4953 1.3099 13.6198 1.26681 13.7451 1.22559C13.7783 1.21468 13.8115 1.20409 13.8447 1.19336C13.9576 1.15689 14.0709 1.12142 14.1846 1.08691C14.2346 1.07173 14.2848 1.05679 14.335 1.04199C14.4375 1.01178 14.5404 0.982713 14.6436 0.954102C14.7108 0.935461 14.7782 0.917369 14.8457 0.899414C14.9296 0.877107 15.0134 0.854248 15.0977 0.833008C15.1732 0.813964 15.2493 0.796501 15.3252 0.77832C15.4187 0.755924 15.5124 0.733968 15.6064 0.712891C15.6542 0.702185 15.7021 0.692004 15.75 0.681641C15.864 0.656972 15.9781 0.632091 16.0928 0.609375C16.1496 0.598121 16.2067 0.587919 16.2637 0.577148C16.364 0.558188 16.4646 0.539917 16.5654 0.522461C16.6266 0.511883 16.6877 0.501233 16.749 0.491211C16.8633 0.472535 16.9779 0.455208 17.0928 0.438477C17.1308 0.432933 17.1689 0.427203 17.207 0.421875C17.319 0.406224 17.4314 0.391718 17.5439 0.37793C17.6193 0.368698 17.6949 0.359953 17.7705 0.351562C17.8638 0.34122 17.9572 0.331322 18.0508 0.322266C18.1158 0.315979 18.1809 0.310351 18.2461 0.304688C18.3552 0.295204 18.4646 0.286043 18.5742 0.27832C18.623 0.274886 18.6718 0.272615 18.7207 0.269531C18.8373 0.262169 18.9541 0.255355 19.0713 0.25C19.1324 0.247206 19.1936 0.244432 19.2549 0.242188C19.3624 0.238249 19.4702 0.234656 19.5781 0.232422C19.5963 0.232045 19.6146 0.231774 19.6328 0.231445C19.6432 0.231527 19.6536 0.231357 19.6641 0.231445C19.7758 0.229605 19.8878 0.227539 20 0.227539Z" fill="white"/>
</svg>
